<svg viewBox="0 0 250 250" xmlns="http://www.w3.org/2000/svg"><g fill-rule="nonzero" fill="none"><path d="M206.79 81.505a6 6 0 0 0-6 6v149.919H12V48.635h146.792a6 6 0 0 0 0-12H6a6 6 0 0 0-6 6v200.789a6 6 0 0 0 6 6h200.79a6 6 0 0 0 6-6V87.505a6 6 0 0 0-6-6Z" fill="#ffffff" class="fill-000000"></path><path d="M247.667 1.758a5.998 5.998 0 0 0-8.485 0L80.416 160.523 41.023 121.13a5.998 5.998 0 0 0-8.485 0 5.999 5.999 0 0 0 0 8.484l43.636 43.636a5.98 5.98 0 0 0 4.243 1.758 5.98 5.98 0 0 0 4.243-1.758L247.667 10.243a5.998 5.998 0 0 0 0-8.485Z" fill="#ffffff" class="fill-fb4a5e"></path></g></svg>