<svg id="Layer_1" version="1.1" viewBox="0 0 24 24" xml:space="preserve" xmlns="http://www.w3.org/2000/svg" enable-background="new 0 0 24 24"><path d="M1.1 9.4C2.3 4.4 6.7.8 12 .8c5.3 0 9.7 3.7 10.9 8.6" fill="none" stroke="#ffffff" stroke-width="1.5" stroke-linecap="round" stroke-linejoin="round" stroke-miterlimit="10" class="stroke-000000"></path><path d="M23.3 12c0 6.2-5 11.3-11.3 11.3C5.8 23.3.7 18.3.7 12c0-.9.1-1.8.3-2.6h0c2.9 0 5.7-1.2 7.8-3.2l.5-.5.5.5c2.1 2.1 4.9 3.2 7.8 3.2h5.3c.2.8.4 1.7.4 2.6z" fill="none" stroke="#ffffff" stroke-width="1.5" stroke-linecap="round" stroke-linejoin="round" stroke-miterlimit="10" class="stroke-000000"></path><circle cx="16.3" cy="12.8" r="1.3" fill="#ffffff" class="fill-000000"></circle><circle cx="7.5" cy="12.8" r="1.3" fill="#ffffff" class="fill-000000"></circle><path d="M7.1 16.9c1 1.5 2.8 2.5 4.8 2.5s3.7-1 4.8-2.5" fill="none" stroke="#ffffff" stroke-width="1.5" stroke-linecap="round" stroke-linejoin="round" stroke-miterlimit="10" class="stroke-000000"></path></svg>