<svg viewBox="0 0 512 512" xml:space="preserve" xmlns="http://www.w3.org/2000/svg"><circle cx="256" cy="256" fill="#ffffff" r="256" class="fill-2bdd73"></circle><path d="M234.3 306v56.9c0 12.3-4 23.3-11.8 32.9-8.4 10.3-19.2 16.7-32.3 18.8-30.1 4.7-54.7-15.5-59.9-41.3-.7-3.4-1.1-6.8-1-10.3V148.9c0-13 4.6-24.4 13.1-34.2 8.2-9.3 18.6-15.2 30.9-17.1 16.4-2.5 31.2 1.7 43.7 12.9 8.8 7.8 14.2 17.6 16.4 29.1.6 2.9.9 5.9.9 8.9v52.2c0 .7-.1 1.4.2 2.4.6-.7.9-1.2 1.4-1.8 15.9-23.2 31.8-46.4 47.7-69.7 3.4-4.9 6.7-9.9 10.1-14.8 7.7-11 18.1-17.7 31.3-20.1 14.8-2.7 28.4.6 40.6 9.1 11.2 7.7 18.6 18.3 21.8 31.5 3.1 12.4 1.6 24.4-4.7 35.6-.6 1-1.2 2.1-2 3-17.3 25.2-34.5 50.5-51.8 75.7-.1.1-.2.2-.2.3-.9 1.3-.9 1.3.1 2.5 2.1 2.5 4.1 5 6.2 7.6 11.3 13.8 22.6 27.6 34 41.5 8 9.8 16.2 19.5 24.1 29.4 4.8 6 7.7 12.8 9 20.4 3 19.2-3.2 35.4-17.3 48.5-8.6 8-19 12.8-30.6 13.9-17.3 1.7-32.2-3.5-43.4-17.2-19.4-23.4-38.7-47.1-58-70.7L236 307.4c-.4-.5-.8-.9-1.3-1.5-.2 0-.3 0-.4.1z" fill="#000000" class="fill-ffffff"></path></svg>